<svg id="Layer_1" data-name="Layer 1" xmlns="http://www.w3.org/2000/svg" viewBox="0 0 501.89 456.74"><defs><style>.cls-1{fill:#2ea349;}.cls-2{fill:#fff;}.cls-3{fill:#231f20;}</style></defs><g id="LOGO3"><g id="_Group_" data-name="&lt;Group&gt;"><g id="by"><path d="M15.79,293.44h5v18.47a15.82,15.82,0,0,1,3-3.69,10.07,10.07,0,0,1,3.09-1.74,10.86,10.86,0,0,1,3.57-.58,11,11,0,0,1,6.19,1.85A11.88,11.88,0,0,1,41,313.29a21.12,21.12,0,0,1,1.56,8.29,18.76,18.76,0,0,1-3.27,11.33,10.65,10.65,0,0,1-9.12,4.49,11.52,11.52,0,0,1-3.58-.54,9,9,0,0,1-3-1.63,13.89,13.89,0,0,1-2.87-3.85v2.22c0,1.21,0,2.53,0,3.8H15.79m5-15.59a14.52,14.52,0,0,0,2.17,8.26A7,7,0,0,0,29,333.31a7.46,7.46,0,0,0,6-2.88q2.39-2.87,2.39-8.54,0-6.64-2.43-9.24a7.7,7.7,0,0,0-5.81-2.59,7.56,7.56,0,0,0-4.4,1.42,8.26,8.26,0,0,0-3,4.22A18.13,18.13,0,0,0,20.75,321.81Z"/><path d="M53.79,337.38,41,305.94h5.47l9.95,24.4,9.31-24.4h5L58.19,338.85q-2.52,6.61-4.23,8.79a10,10,0,0,1-3.61,3.05,12.1,12.1,0,0,1-5.06.88H41.58V347H44.4a9.59,9.59,0,0,0,3.58-.61,6,6,0,0,0,2.56-1.94,26.24,26.24,0,0,0,2.74-5.82Z"/><path d="M15.79,293.44h5v18.47a15.82,15.82,0,0,1,3-3.69,10.07,10.07,0,0,1,3.09-1.74,10.86,10.86,0,0,1,3.57-.58,11,11,0,0,1,6.19,1.85A11.88,11.88,0,0,1,41,313.29a21.12,21.12,0,0,1,1.56,8.29,18.76,18.76,0,0,1-3.27,11.33,10.65,10.65,0,0,1-9.12,4.49,11.52,11.52,0,0,1-3.58-.54,9,9,0,0,1-3-1.63,13.89,13.89,0,0,1-2.87-3.85v2.22c0,1.21,0,2.53,0,3.8H15.79m5-15.59a14.52,14.52,0,0,0,2.17,8.26A7,7,0,0,0,29,333.31a7.46,7.46,0,0,0,6-2.88q2.39-2.87,2.39-8.54,0-6.64-2.43-9.24a7.7,7.7,0,0,0-5.81-2.59,7.56,7.56,0,0,0-4.4,1.42,8.26,8.26,0,0,0-3,4.22A18.13,18.13,0,0,0,20.75,321.81Z"/><path d="M53.79,337.38,41,305.94h5.47l9.95,24.4,9.31-24.4h5L58.19,338.85q-2.52,6.61-4.23,8.79a10,10,0,0,1-3.61,3.05,12.1,12.1,0,0,1-5.06.88H41.58V347H44.4a9.59,9.59,0,0,0,3.58-.61,6,6,0,0,0,2.56-1.94,26.24,26.24,0,0,0,2.74-5.82Z"/></g><path d="M81.5,253.3q0,15.51-13,26.56t-31.3,11.05H15.69V175.82H37.25A30.83,30.83,0,0,1,56.35,182q8.13,6.15,8.13,14.46a16.66,16.66,0,0,1-5.29,12.09,28.57,28.57,0,0,1-13.62,7.37A45.61,45.61,0,0,1,71.29,229Q81.51,239.51,81.5,253.3ZM56.16,196.42q0-7.38-6.15-13t-12.76-5.67H23.82v37.61H37.25a18.2,18.2,0,0,0,13.33-5.58A18.15,18.15,0,0,0,56.16,196.42Zm17,56.88A34.7,34.7,0,0,0,62.68,228,34.45,34.45,0,0,0,37.25,217.4H23.82V289H37.25a34.62,34.62,0,0,0,25.43-10.49A34.37,34.37,0,0,0,73.18,253.3Z"/><g id="a"><path d="M167.4,250.53A38.67,38.67,0,0,1,155.53,279a40.51,40.51,0,0,1-57.2,0,40.13,40.13,0,0,1,0-57,39.25,39.25,0,0,1,28.6-11.71A39.15,39.15,0,0,1,155.62,222,38.73,38.73,0,0,1,167.4,250.53Zm-8.17,0q0-16.07-9.4-27.31c-6.27-7.49-13.91-10.32-22.9-10.32s-16.44,2.83-22.71,10.32-9.4,16.6-9.4,27.31,3.13,19.66,9.4,27.22,13.84,10,22.71,10,16.47-2.44,22.8-10S159.23,261.12,159.23,250.53Z"/><rect x="159.27" y="248.47" width="8.13" height="42.32"/></g><path d="M184,290.91h-8.13V176H184Z"/><path d="M201,290.91h-8.13V176H201Z"/><path d="M287.59,250.74a40.26,40.26,0,0,1-68.75,28.44,40.31,40.31,0,0,1,57-57A38.81,38.81,0,0,1,287.59,250.74Zm-8.14,0q0-16.06-9.36-27.31c-6.24-7.5-13.84-10.32-22.79-10.32s-16.36,2.82-22.6,10.32-9.36,16.6-9.36,27.31,3.12,19.65,9.36,27.21,13.77,10,22.6,10,16.39-2.45,22.7-10S279.45,261.32,279.45,250.74Z"/><path d="M373.73,250.74A40,40,0,1,1,362,222.2,38.74,38.74,0,0,1,373.73,250.74Zm-8.13,0q0-16.06-9.36-27.31c-6.24-7.5-13.84-10.32-22.79-10.32s-16.36,2.82-22.6,10.32-9.36,16.6-9.36,27.31,3.12,19.65,9.36,27.21,13.77,10,22.6,10,16.39-2.45,22.69-10S365.6,261.32,365.6,250.74Z"/><path d="M418.5,291l-7.93.14V227A20.72,20.72,0,0,0,408,216.48q-2.55-4.44-5.77-4.44a14.36,14.36,0,0,0-9.83,3.68,15.57,15.57,0,0,0-5.11,9.36V291l-8.13.14V210.48h7.93l.2,9.12q4.72-9.25,14.94-9.26a15.39,15.39,0,0,1,11.45,5A16.28,16.28,0,0,1,418.5,227v64Z"/><path d="M486.15,287.52c0,12.91-4.41,23.79-13.59,32.62s-20,13.59-33,13.59A44.4,44.4,0,0,1,407,320.14c-9.18-9.17-13.59-19.71-13.59-32.62a41.64,41.64,0,0,1,4.07-18.35l1.36.68a45.8,45.8,0,0,0-3.73,17.67,43.11,43.11,0,0,0,13.25,31.6c8.83,8.83,19.36,13.25,31.25,13.25,10.54,0,19.71-4.42,26.85-13.25q11.21-13.25,11.21-31.6c0-21.06-10.53-34-31.94-37.71q-9.68-2-15.29-7.14A17.41,17.41,0,0,1,425,229.42c.34-5.09,2-9.85,5.78-13.25a16.71,16.71,0,0,1,12.91-5.44,18.57,18.57,0,0,1,18.69,18.69,18.43,18.43,0,0,1-2,8.5l-1.36-.68a17.73,17.73,0,0,0-3.4-20.05c-3.39-3.4-6.53-4.17-10.95-4.17a11.9,11.9,0,0,0-8.83,3.6c-2.55,2.55-3.32,5.67-3.32,10.42,0,8.5,4.76,13.59,13.93,15.29,11.89,2.38,21.41,7.14,28.2,14.61C482.42,264.76,486.15,275,486.15,287.52Z"/><g id="T_Image" data-name="T Image"><path class="cls-1" d="M124.21,308.1H107v95.65H98.45V308.1H81.21v-1.43h43v1.43Z"/><rect class="cls-1" x="75.09" y="305.77" width="55.25" height="6.17"/></g><g id="ommy"><path class="cls-1" d="M221.34,357.69a45.84,45.84,0,0,1-45.78,45.75A45.75,45.75,0,1,1,208,325.26,44.11,44.11,0,0,1,221.34,357.69Zm-9.24,0q0-18.26-10.64-31c-7.1-8.52-15.73-11.73-25.9-11.73s-18.6,3.21-25.69,11.73-10.64,18.87-10.64,31,3.55,22.34,10.64,30.93S165.52,400,175.56,400s18.62-2.78,25.79-11.37S212.1,369.72,212.1,357.69Z"/><path class="cls-1" d="M315.07,403.55H305V331.6a24.77,24.77,0,0,0-3-12.4q-3-5.25-6.87-5.25a17.81,17.81,0,0,0-12.24,4.58,17,17,0,0,0-5.84,11.28v73.74h-9.84V331.6a24.59,24.59,0,0,0-3-12.51q-3-5.14-7.1-5.14a17.63,17.63,0,0,0-11.9,4.35,18.21,18.21,0,0,0-6.18,10.84v74.41h-9.84V312h9.84v10.88q5.73-10.94,18.08-10.94,14.41,0,18.77,13.4,4.8-13.41,19.22-13.4a19.37,19.37,0,0,1,14,5.8,18.73,18.73,0,0,1,5.95,13.86Z"/><path class="cls-1" d="M410,403.55H400V331.6a24.76,24.76,0,0,0-3-12.4q-3-5.25-6.87-5.25a17.81,17.81,0,0,0-12.24,4.58,16.92,16.92,0,0,0-5.84,11.28v73.74h-9.84V331.6a24.49,24.49,0,0,0-3-12.51q-3-5.14-7.09-5.14a17.6,17.6,0,0,0-11.9,4.35,18.11,18.11,0,0,0-6.18,10.84v74.41h-9.84V312h9.84v10.88q5.71-10.94,18.08-10.94,14.42,0,18.77,13.4,4.8-13.41,19.22-13.4a19.35,19.35,0,0,1,14,5.8,18.7,18.7,0,0,1,6,13.86Z"/><path class="cls-1" d="M467.48,312.24,433.81,442.46H430L439.56,404l-23.34-91.73h10.07l18.77,71.85,18.53-71.85Z"/></g><path id="knot" class="cls-1" d="M360.48,184.14l-12.38.74s2.25-4,4-7.71-4.52-1.37-4.52-1.37L357.4,169"/><path id="balloon" class="cls-1" d="M368.74,55.72c13.61,33.8,6.43,107.52-16.9,119.54-51.17,10.77-123.9-36.85-123-90.41S275,14.28,303.57,14.28C315.35,14.28,349.56,14.27,368.74,55.72Z"/><path id="balloon_shine" data-name="balloon shine" class="cls-2" d="M300.75,36.29S286.5,32.86,286,40.07c-.73,9.66,10.54,15.2,23.56,16.33s22.71.56,23.33-12.2c.51-10.7-12.12-8.5-12.12-8.5s-8.06,2.23-13.23,1.77"/><path d="M358.53,173.12c.41,1.21-1.16,1.76-3,2.36s-3.5.67-3.68.14,1.19-1.46,3.05-2.07S358.35,172.59,358.53,173.12Z"/><path d="M398,271.69l-1.48-.61c10.54-25.44,10.9-45.93,1.1-62.62-9.55-16.25-27.39-26.37-41.86-33.37l.7-1.44C390.31,190,421.72,214.46,398,271.69Z"/></g></g><g id="LLC"><path class="cls-3" d="M452.26,398.58V383.45h2v13.47h7.92v1.66Z"/><path class="cls-3" d="M463.88,398.58V383.45h2v13.47h7.92v1.66Z"/><path class="cls-3" d="M484.51,395.08h1.81v.09a2.93,2.93,0,0,1-.62,1.73,3.55,3.55,0,0,1-1.68,1.28,7,7,0,0,1-2.49.4,6.28,6.28,0,0,1-4.71-1.89Q475,394.8,475,391a7.88,7.88,0,0,1,1.83-5.66,6.25,6.25,0,0,1,4.73-1.91,6.69,6.69,0,0,1,2.47.42,3.47,3.47,0,0,1,1.68,1.3,2.92,2.92,0,0,1,.62,1.7V387h-1.81v-.08a1.69,1.69,0,0,0-.36-1,2.08,2.08,0,0,0-1-.73,4.43,4.43,0,0,0-1.55-.24,3.84,3.84,0,0,0-3.45,1.73,9.17,9.17,0,0,0,0,8.82,3.84,3.84,0,0,0,3.44,1.73,3.26,3.26,0,0,0,2.24-.62,1.9,1.9,0,0,0,.67-1.38v-.09Z"/></g></svg>