<?xml version="1.0" encoding="utf-8"?>
<!-- Generator: Adobe Illustrator 25.0.0, SVG Export Plug-In . SVG Version: 6.00 Build 0)  -->
<svg version="1.1" id="Layer_1" xmlns="http://www.w3.org/2000/svg" xmlns:xlink="http://www.w3.org/1999/xlink" x="0px" y="0px"
	 width="501.9px" height="456.7px" viewBox="0 0 501.9 456.7" style="enable-background:new 0 0 501.9 456.7;" xml:space="preserve"
	>
<style type="text/css">
	.st0{fill:#2EA349;}
	.st1{fill:#FFFFFF;}
	.st2{display:none;}
	.st3{display:inline;}
	.st4{fill:#231F20;}
</style>
<g id="LOGO3_1_">
	<g id="_x3C_Group_x3E__1_">
		<g>
			<g>
				<path d="M15.8,295.4h5v18.5c1.1-1.7,2.1-2.9,3-3.7c0.9-0.8,2-1.4,3.1-1.7s2.3-0.6,3.6-0.6c2.2,0,4.3,0.6,6.2,1.8
					c1.9,1.2,3.3,3.1,4.4,5.5c1,2.5,1.6,5.2,1.6,8.3c0,4.6-1.1,8.3-3.3,11.3c-2.2,3-5.2,4.5-9.1,4.5c-1.3,0-2.5-0.2-3.6-0.5
					c-1.1-0.4-2.1-0.9-3-1.6c-0.9-0.7-1.8-2-2.9-3.8v2.2c-0.1,1.2,0,2.5,0,3.8h-5V295.4z M20.7,323.8c0,3.4,0.7,6.1,2.2,8.3
					c1.5,2.2,3.5,3.2,6.1,3.2c2.4,0,4.4-1,6-2.9c1.6-1.9,2.4-4.8,2.4-8.5c0-4.4-0.8-7.5-2.4-9.2c-1.6-1.7-3.6-2.6-5.8-2.6
					c-1.6,0-3,0.5-4.4,1.4c-1.4,1-2.4,2.4-3,4.2C21.1,319.6,20.7,321.6,20.7,323.8z"/>
				<path d="M53.8,339.4L41,307.9h5.5l10,24.4l9.3-24.4h5l-12.5,32.9c-1.7,4.4-3.1,7.3-4.2,8.8c-1.1,1.5-2.3,2.5-3.6,3
					c-1.3,0.6-3,0.9-5.1,0.9h-3.7V349h2.8c1.4,0,2.6-0.2,3.6-0.6s1.9-1.1,2.6-1.9c0.7-0.9,1.6-2.8,2.7-5.8L53.8,339.4z"/>
			</g>
			<path d="M81.5,253.3c0,10.3-4.3,19.2-13,26.6c-8.6,7.4-19.1,11.1-31.3,11.1H15.7V175.8h21.6c7.3,0,13.7,2.1,19.1,6.1
				c5.4,4.1,8.1,8.9,8.1,14.5c0,4.5-1.8,8.6-5.3,12.1c-3.5,3.5-8.1,6-13.6,7.4c10.3,1.8,18.9,6.1,25.7,13.1
				C78.1,236,81.5,244.1,81.5,253.3z M56.2,196.4c0-4.9-2.1-9.3-6.1-13c-4.1-3.8-8.4-5.7-12.8-5.7H23.8v37.6h13.4
				c5.2,0,9.6-1.9,13.3-5.6C54.3,206,56.2,201.6,56.2,196.4z M73.2,253.3c0-9.8-3.5-18.3-10.5-25.3c-7-7.1-15.5-10.6-25.4-10.6H23.8
				V289h13.4c10,0,18.4-3.5,25.4-10.5C69.7,271.5,73.2,263.1,73.2,253.3z"/>
			<g id="a">
				<path d="M167.4,250.5c0,11.1-4,20.6-11.9,28.4c-7.9,7.9-17.5,11.8-28.6,11.8c-11.1,0-20.7-3.9-28.6-11.8
					c-7.9-7.9-11.9-17.4-11.9-28.4c0-11.2,4-20.7,11.9-28.5c7.9-7.8,17.4-11.7,28.6-11.7c11.3,0,20.8,3.9,28.7,11.7
					C163.5,229.8,167.4,239.3,167.4,250.5z M159.2,250.5c0-10.7-3.1-19.8-9.4-27.3c-6.3-7.5-13.9-10.3-22.9-10.3
					c-8.9,0-16.4,2.8-22.7,10.3c-6.3,7.5-9.4,16.6-9.4,27.3c0,10.6,3.1,19.7,9.4,27.2s13.8,10,22.7,10c8.9,0,16.5-2.4,22.8-10
					C156.1,270.2,159.2,261.1,159.2,250.5z"/>
				<rect x="159.3" y="248.5" width="8.1" height="42.3"/>
			</g>
			<path d="M184,290.9h-8.1V176h8.1V290.9z"/>
			<path d="M201,290.9h-8.1V176h8.1V290.9z"/>
			<path d="M287.6,250.7c0,11.1-3.9,20.6-11.8,28.4c-7.9,7.9-17.4,11.8-28.5,11.8c-11.1,0-20.6-3.9-28.5-11.8
				c-7.9-7.9-11.8-17.4-11.8-28.4c0-11.2,3.9-20.7,11.8-28.5c7.9-7.8,17.4-11.7,28.5-11.7c11.2,0,20.7,3.9,28.6,11.7
				C283.7,230,287.6,239.5,287.6,250.7z M279.5,250.7c0-10.7-3.1-19.8-9.4-27.3c-6.2-7.5-13.8-10.3-22.8-10.3
				c-8.8,0-16.4,2.8-22.6,10.3c-6.2,7.5-9.4,16.6-9.4,27.3c0,10.6,3.1,19.7,9.4,27.2s13.8,10,22.6,10c8.8,0,16.4-2.4,22.7-10
				C276.3,270.4,279.5,261.3,279.5,250.7z"/>
			<path d="M373.7,250.7c0,11.1-3.9,20.6-11.8,28.4c-7.9,7.9-17.4,11.8-28.5,11.8c-11.1,0-20.6-3.9-28.5-11.8
				c-7.9-7.9-11.8-17.4-11.8-28.4c0-11.2,3.9-20.7,11.8-28.5c7.9-7.8,17.4-11.7,28.5-11.7c11.2,0,20.7,3.9,28.6,11.7
				C369.8,230,373.7,239.5,373.7,250.7z M365.6,250.7c0-10.7-3.1-19.8-9.4-27.3c-6.2-7.5-13.8-10.3-22.8-10.3
				c-8.8,0-16.4,2.8-22.6,10.3c-6.2,7.5-9.4,16.6-9.4,27.3c0,10.6,3.1,19.7,9.4,27.2s13.8,10,22.6,10c8.8,0,16.4-2.4,22.7-10
				C362.4,270.4,365.6,261.3,365.6,250.7z"/>
			<path d="M418.5,291l-7.9,0.1l0-64.2c0-4-0.9-7.5-2.6-10.5c-1.7-3-3.6-4.4-5.8-4.4c-3.8,0-7.1,1.2-9.8,3.7
				c-2.8,2.5-4.5,5.6-5.1,9.4V291l-8.1,0.1v-80.7h7.9l0.2,9.1c3.1-6.2,8.1-9.3,14.9-9.3c4.4,0,8.2,1.7,11.4,5
				c3.2,3.3,4.8,7.2,4.8,11.6L418.5,291L418.5,291z"/>
			<path d="M486.2,287.5c0,12.9-4.4,23.8-13.6,32.6c-9.2,8.8-20,13.6-33,13.6c-12.6,0-23.4-4.4-32.6-13.6
				c-9.2-9.2-13.6-19.7-13.6-32.6c0-6.5,1.4-12.9,4.1-18.3l1.4,0.7c-2.4,5.8-3.7,11.6-3.7,17.7c0,12.2,4.4,22.8,13.3,31.6
				s19.4,13.3,31.3,13.3c10.5,0,19.7-4.4,26.8-13.3c7.5-8.8,11.2-19.4,11.2-31.6c0-21.1-10.5-34-31.9-37.7
				c-6.5-1.4-11.6-3.7-15.3-7.1s-5.4-8.2-5.4-13.3c0.3-5.1,2-9.9,5.8-13.3c3.4-3.7,7.8-5.4,12.9-5.4s9.5,1.7,13.3,5.4
				c3.7,3.7,5.4,8.2,5.4,13.3c0,3.1-0.7,5.8-2,8.5l-1.4-0.7c1.4-2.4,1.7-5.1,1.7-8.2c0-4.8-1.7-8.5-5.1-11.9
				c-3.4-3.4-6.5-4.2-11-4.2c-3.1,0-6.1,0.9-8.8,3.6c-2.6,2.6-3.3,5.7-3.3,10.4c0,8.5,4.8,13.6,13.9,15.3
				c11.9,2.4,21.4,7.1,28.2,14.6C482.4,264.8,486.2,275,486.2,287.5z"/>
		</g>
		<g id="ommy">
			<g>
				<path class="st0" d="M216.3,357.7c0,12.6-4.5,23.4-13.4,32.3c-9,9-19.7,13.4-32.4,13.4c-12.6,0-23.4-4.5-32.3-13.4
					c-9-8.9-13.4-19.7-13.4-32.3c0-12.7,4.5-23.6,13.4-32.4c9-8.9,19.7-13.3,32.3-13.3c12.8,0,23.6,4.4,32.5,13.3
					C211.9,334.1,216.3,344.9,216.3,357.7z M207.1,357.7c0-12.2-3.5-22.5-10.6-31c-7.1-8.5-15.7-11.7-25.9-11.7
					c-10,0-18.6,3.2-25.7,11.7c-7.1,8.5-10.6,18.9-10.6,31c0,12,3.5,22.3,10.6,30.9c7.1,8.6,15.7,11.4,25.7,11.4
					c10,0,18.6-2.8,25.8-11.4C203.5,380,207.1,369.7,207.1,357.7z"/>
				<path class="st0" d="M311.1,403.5H301v-71.9c0-4.8-1-8.9-3-12.4c-2-3.5-4.3-5.3-6.9-5.3c-4.7,0-8.8,1.5-12.2,4.6
					c-3.4,3.1-5.4,6.8-5.8,11.3v73.7h-9.8v-71.9c0-4.9-1-9.1-3-12.5c-2-3.4-4.3-5.1-7.1-5.1c-4.6,0-8.5,1.5-11.9,4.4
					c-3.4,2.9-5.4,6.5-6.2,10.8v74.4h-9.8V312h9.8v10.9c3.8-7.3,9.8-10.9,18.1-10.9c9.6,0,15.9,4.5,18.8,13.4
					c3.2-8.9,9.6-13.4,19.2-13.4c5.3,0,10,1.9,14,5.8c4,3.9,6,8.5,6,13.9V403.5z"/>
				<path class="st0" d="M406,403.5H396v-71.9c0-4.8-1-8.9-3-12.4c-2-3.5-4.3-5.3-6.9-5.3c-4.7,0-8.8,1.5-12.2,4.6
					c-3.4,3.1-5.4,6.8-5.8,11.3v73.7h-9.8v-71.9c0-4.9-1-9.1-3-12.5c-2-3.4-4.3-5.1-7.1-5.1c-4.6,0-8.5,1.5-11.9,4.4
					c-3.4,2.9-5.4,6.5-6.2,10.8v74.4h-9.8V312h9.8v10.9c3.8-7.3,9.8-10.9,18.1-10.9c9.6,0,15.9,4.5,18.8,13.4
					c3.2-8.9,9.6-13.4,19.2-13.4c5.3,0,10,1.9,14,5.8c4,3.9,6,8.5,6,13.9V403.5z"/>
				<path class="st0" d="M463.5,312.2l-33.7,130.2h-3.9l9.6-38.5l-23.3-91.7h10.1l18.8,71.9l18.5-71.9H463.5z"/>
			</g>
			<g id="T_xA0_Image_1_">
				<g>
					<path class="st0" d="M131.3,313.9H108v89.8h-8.5v-89.8H76.1v-6h55.2v1.8V313.9z"/>
				</g>
			</g>
		</g>
		<g>
			<path class="st0" d="M357.7,170.6L357.7,170.6l-10.1,5.1c0,0,6.2-2.1,4.5,1.5c-1.8,3.7-4,7.7-4,7.7l12.4-0.7L357.7,170.6"/>
			<path id="balloon_1_" class="st0" d="M368.7,55.7c12.4,30.8,7.5,94.7-11,114.9c-1.8,2-3.8,3.6-5.9,4.6
				c-51.2,10.8-123.9-36.9-123.1-90.4c0.8-53.6,46.2-70.6,74.8-70.6C315.3,14.3,349.6,14.3,368.7,55.7z"/>
			<path id="balloon_shine_1_" class="st1" d="M307.5,37.5c5.2,0.4,13.2-1.8,13.2-1.8s12.6-2.2,12.1,8.5
				c-0.6,12.8-10.3,13.3-23.3,12.2c-13-1.1-24.3-6.7-23.6-16.3c0.5-7.2,14.8-3.8,14.8-3.8S307.3,37.5,307.5,37.5z"/>
			<path d="M358.5,172.7c0.5,1.2-1.1,1.8-2.9,2.5c-1.8,0.7-3.5,0.9-3.7,0.3c-0.2-0.5,1.1-1.5,2.9-2.2
				C356.7,172.6,358.2,172.2,358.5,172.7z"/>
			<path d="M398,271.7l-1.5-0.6c10.5-25.4,10.9-45.9,1.1-62.6c-9.5-16.2-27.4-26.4-41.9-33.4l0.7-1.4
				C390.3,190,421.7,214.5,398,271.7z"/>
		</g>
	</g>
</g>
<g id="LLC" class="st2">
	<g class="st3">
		<path class="st4" d="M452.3,398.6v-15.1h2v13.5h7.9v1.7L452.3,398.6L452.3,398.6z"/>
		<path class="st4" d="M463.9,398.6v-15.1h2v13.5h7.9v1.7L463.9,398.6L463.9,398.6z"/>
		<path class="st4" d="M484.5,395.1h1.8v0.1c0,0.6-0.2,1.1-0.6,1.7c-0.4,0.6-1,1-1.7,1.3c-0.7,0.3-1.5,0.4-2.5,0.4
			c-1.9,0-3.5-0.6-4.7-1.9c-1.2-1.3-1.8-3.2-1.8-5.7c0-2.5,0.6-4.4,1.8-5.7c1.2-1.3,2.8-1.9,4.7-1.9c0.9,0,1.8,0.1,2.5,0.4
			c0.7,0.3,1.3,0.7,1.7,1.3c0.4,0.6,0.6,1.2,0.6,1.7v0.1h-1.8v-0.1c0-0.3-0.1-0.7-0.4-1s-0.6-0.6-1-0.7c-0.4-0.2-0.9-0.2-1.5-0.2
			c-1.5,0-2.7,0.6-3.5,1.7c-0.8,1.2-1.1,2.6-1.1,4.4c0,1.8,0.4,3.3,1.1,4.4c0.8,1.1,1.9,1.7,3.4,1.7c1.1,0,1.8-0.2,2.2-0.6
			C484.3,396.1,484.5,395.7,484.5,395.1L484.5,395.1L484.5,395.1z"/>
	</g>
</g>
</svg>
